<?xml version="1.0" encoding="utf-8"?>
<!-- Generator: Adobe Illustrator 16.0.0, SVG Export Plug-In . SVG Version: 6.00 Build 0)  -->
<!DOCTYPE svg PUBLIC "-//W3C//DTD SVG 1.1//EN" "http://www.w3.org/Graphics/SVG/1.1/DTD/svg11.dtd">
<svg version="1.1" xmlns="http://www.w3.org/2000/svg" xmlns:xlink="http://www.w3.org/1999/xlink" x="0px" y="0px" width="2000px"
	 height="2000px" viewBox="0 0 2000 2000" enable-background="new 0 0 2000 2000" xml:space="preserve">
<g id="Layer_1">
	<rect fill="#FFFFFF" width="2000" height="2000"/>
</g>
<g id="Layer_3">
	<g>
		<g>
			<g>
				<path fill="#8E0038" d="M1182.904,581.35H826.419c-11.046,0-20-8.954-20-20s8.954-20,20-20h356.485c11.046,0,20,8.954,20,20
					S1193.95,581.35,1182.904,581.35z"/>
			</g>
			<polygon fill="#FFFFFF" points="685.141,814.629 1324.183,814.629 1272.989,654.165 736.335,654.165 			"/>
			<g>
				<path fill="#8E0038" d="M1351.577,854.629c-0.007,0-0.014,0-0.02,0H657.768c-6.383,0-12.383-3.047-16.149-8.201
					s-4.845-11.796-2.905-17.877l63.955-200.465c2.646-8.292,10.35-13.921,19.054-13.921h565.879
					c8.704,0,16.408,5.629,19.054,13.921l63.657,199.528c0.817,2.183,1.265,4.547,1.265,7.015
					C1371.577,845.675,1362.623,854.629,1351.577,854.629z M685.141,814.629h639.041l-51.193-160.464H736.335L685.141,814.629z"/>
			</g>
			<polygon fill="#FD558F" points="1254.484,652.458 1306.768,816.337 1153.926,816.337 1118.486,652.458 			"/>
			<polygon fill="#FD558F" points="754.839,652.458 702.556,816.337 855.399,816.337 890.838,652.458 			"/>
			<g>
				<path fill="#8E0038" d="M711.662,1120.969c-11.046,0-20-8.953-20-20v-192.68c0-11.046,8.954-20,20-20s20,8.954,20,20v192.68
					C731.662,1112.016,722.708,1120.969,711.662,1120.969z"/>
			</g>
			<g>
				<path fill="#8E0038" d="M1297.662,1120.969c-11.046,0-20-8.953-20-20v-192.68c0-11.046,8.954-20,20-20s20,8.954,20,20v192.68
					C1317.662,1112.016,1308.708,1120.969,1297.662,1120.969z"/>
			</g>
			<g>
				<path fill="#8E0038" d="M1211.386,1120.969c-11.046,0-20-8.953-20-20V928.29H818.939v172.679c0,11.047-8.954,20-20,20
					s-20-8.953-20-20v-192.68c0-11.046,8.954-20,20-20h412.447c11.046,0,20,8.954,20,20v192.68
					C1231.386,1112.016,1222.432,1120.969,1211.386,1120.969z"/>
			</g>
			<g>
				<path fill="#8E0038" d="M853.179,854.633c-1.267,0-2.551-0.121-3.841-0.372c-10.843-2.109-17.922-12.608-15.813-23.451
					l38.998-200.464c2.109-10.842,12.608-17.922,23.451-15.813s17.922,12.608,15.813,23.451l-38.998,200.464
					C870.931,848.001,862.56,854.633,853.179,854.633z"/>
			</g>
			<g>
				<path fill="#8E0038" d="M1156.145,854.633c-9.381,0-17.751-6.631-19.61-16.185l-38.998-200.464
					c-2.109-10.843,4.97-21.342,15.813-23.451c10.84-2.11,21.342,4.971,23.451,15.813l38.998,200.464
					c2.109,10.843-4.97,21.342-15.813,23.451C1158.697,854.512,1157.411,854.633,1156.145,854.633z"/>
			</g>
			<g>
				<path fill="#8E0038" d="M1369.662,1185.629H630.338c-11.046,0-20-8.953-20-20c0-11.045,8.954-20,20-20h739.324
					c11.046,0,20,8.955,20,20C1389.662,1176.676,1380.708,1185.629,1369.662,1185.629z"/>
			</g>
		</g>
		<g>
			<path class="path-text-G" fill="#8E0038" d="M658.751,1388.6c0,26.674,8.891,43.377,36.373,43.377c11.046,0,19.129-2.963,26.403-7.813v-49.844
				h-20.207c-7.005,0-13.471-6.197-13.471-13.74c0-7.545,6.466-13.473,13.471-13.473h30.714c9.969,0,18.859,5.119,18.859,15.627
				v61.969c0,23.439-31.253,33.408-57.118,33.408c-44.455,0-64.662-27.48-64.662-69.512v-55.502
				c0-42.029,20.207-69.512,64.662-69.512c26.403,0,51.729,11.855,51.729,25.865c0,7.006-5.927,12.934-13.741,12.934
				c-5.119,0-6.736-1.887-10.777-4.313l-1.347-0.807c-7.274-4.85-15.088-7.545-24.518-7.545c-27.481,0-36.373,16.705-36.373,43.377
				V1388.6z"/>
			<path class="path-text-E" fill="#8E0038" d="M901.5,1455.955h-71.397c-11.046,0-21.015-3.771-21.015-15.895v-158.152
				c0-7.814,7.005-15.896,16.705-15.896h73.014c8.083,0,14.818,6.467,14.818,14.279s-6.735,13.471-14.818,13.471h-60.082v53.078
				h54.962c7.275,0,14.549,5.926,14.549,13.74c0,7.813-6.466,14.01-14.549,14.01h-54.962v53.885H901.5
				c7.813,0,14.818,5.928,14.818,13.201C916.319,1449.76,909.583,1455.955,901.5,1455.955z"/>
			<path class="path-text-R" fill="#8E0038" d="M1055.607,1372.973c13.202,21.285,26.674,42.031,39.875,63.314c1.348,1.348,2.155,5.658,2.155,7.275
				c0,8.352-8.082,14.549-15.356,14.549c-5.389,0-9.699-2.156-12.394-6.467l-46.61-75.977h-24.518v68.434
				c0,7.543-7.005,14.279-15.088,14.279c-7.813,0-14.549-6.467-14.549-14.279v-161.924c0-8.623,7.544-16.166,16.435-16.166h46.88
				c47.419,0,62.775,28.02,62.775,55.502C1095.213,1349.264,1079.856,1366.775,1055.607,1372.973z M1031.359,1293.762h-32.6v54.693
				h34.217c21.015,0,32.6-9.43,32.6-26.941C1065.576,1308.041,1059.11,1293.762,1031.359,1293.762z"/>
			<path class="path-text-A" fill="#8E0038" d="M1175.496,1448.143c-1.886,6.467-9.16,10.238-14.01,10.238c-8.353,0-15.357-5.389-15.357-13.74
				c0-1.348,0.27-4.043,0.539-5.119l52.537-159.77c2.964-9.16,7.544-16.166,18.052-16.166s14.818,6.736,18.052,16.166l52.537,159.77
				c0.539,1.076,0.809,3.771,0.809,5.119c0,8.352-6.735,13.74-15.357,13.74c-9.699,0-12.933-6.736-16.435-16.436l-8.622-26.133
				h-62.775L1175.496,1448.143z M1193.816,1389.947h46.611c-8.353-27.213-17.513-53.885-23.171-81.906
				C1210.521,1336.602,1201.899,1362.734,1193.816,1389.947z"/>
			<path class="path-text-I" fill="#8E0038" d="M1339.302,1277.598c0-7.545,6.466-14.012,14.818-14.012c8.082,0,14.818,6.467,14.818,14.012v167.043
				c0,7.273-6.736,14.01-14.818,14.01c-8.353,0-14.818-6.736-14.818-14.01V1277.598z"/>
		</g>
	</g>
</g>
</svg>
